<?xml version="1.0" encoding="utf-8" ?><svg xmlns="http://www.w3.org/2000/svg" xmlns:xlink="http://www.w3.org/1999/xlink" width="1024" height="1024" viewBox="0 0 1024 1024"><path fill="#289554" d="M483.729 199.543C482.174 188.024 483.785 171.069 490.897 161.439C493.753 157.573 497.83 154.731 502.643 154.047C505.943 153.579 510.384 154.028 513.147 156.045C514.765 157.226 515.577 158.938 515.792 160.901C517.032 172.186 506.245 179.915 503.745 189.181C502.436 194.034 503.113 199.249 504.266 204.047C513.498 205.846 522.863 206.843 532.081 208.705C557.855 213.913 574.94 225.603 589.7 247.41C627.224 302.849 620.214 385.405 621.984 449.478C640.916 459.936 655.845 472.287 662.022 493.785C665.319 505.259 666.444 515.645 676.472 523.537C681.757 518.497 685.963 513.84 693.865 514.055C699.553 514.21 704.971 516.177 710.55 517.088C715.098 517.831 719.884 517.949 724.325 519.242C726.422 519.853 728.547 520.82 730.499 521.79C733.348 521.479 736.152 521.17 738.957 520.564C745.845 523.872 760.233 531.236 765.536 536.182C774.288 536.124 783.137 536.519 791.866 535.933C793.273 512.304 801.601 480.697 819.777 464.648C832.816 453.133 848.894 454.06 865.278 454.073C873.601 454.08 882.01 453.891 890.318 454.457C904.082 455.394 915.535 459.027 924.818 469.664C937.235 483.89 942.046 502.805 945.685 520.894C946.791 526.388 947.261 532.316 949.782 537.38C955.544 539.178 960.253 541.337 963.267 546.946C965.724 551.517 966.044 556.872 964.377 561.759C962.675 566.671 959.001 570.651 954.24 572.74C952.282 573.606 950.202 574.245 948.167 574.903C946.919 585.069 944.992 595.588 941.604 605.261C939.819 610.36 937.175 615.31 935.667 620.464C934.435 624.673 934.552 629.633 932.543 633.533C930.364 637.764 926.549 641.248 922.837 644.139C906.263 657.05 889.054 655.261 869.268 655.423C861.017 655.49 852.525 656.2 844.327 655.11C832.021 653.473 822.597 647.147 815.15 637.366C805.384 624.54 799.417 608.047 796.941 592.214C796.004 586.223 795.763 579.983 794.294 574.102C779.105 573.155 763.478 576.036 748.25 576.526C745.213 579.944 742.556 584.159 739.031 587.045C732.832 592.121 724.896 594.525 718.648 599.592C713.577 603.704 709.533 609.307 705.096 614.089C693.813 626.25 678.281 634.536 661.557 635.458C647.85 636.214 635.168 630.499 625.137 621.406C619.082 615.918 614.234 609.215 609.287 602.752C607.565 608.397 606.722 614.242 605.327 619.969C603.903 625.817 601.601 632.07 601.061 638.032C603.551 640.484 614.032 642.231 617.884 643.383C642.24 650.667 668.858 666.108 669.152 694.927C669.245 703.957 666.16 712.535 664.912 721.391C663.404 732.084 664.168 742.804 662.369 753.527C659.482 770.739 652.644 786.801 647.818 803.481C672.952 803.599 698.076 804.565 723.146 806.375C753.119 808.081 783.037 810.638 812.865 814.044C843.55 817.52 889.764 822.925 918.266 833.957C924.359 836.315 935.349 840.971 937.946 847.589C938.763 849.671 938.45 851.921 937.441 853.87C933.194 862.073 918.882 866.556 910.708 869.087C890.059 875.48 868.642 878.818 847.307 881.97C809.2 887.544 770.869 891.458 732.423 893.701C655.616 898.754 578.662 901.264 501.689 901.23C474.104 901.003 446.523 900.387 418.955 899.382C409.975 899.04 401.018 898.261 392.039 897.935C378.171 897.431 364.256 897.891 350.399 897.309C297.201 894.889 244.129 890.236 191.322 883.362C160.717 879.273 120.583 876.136 93.2055 861.504C88.8867 859.195 83.3373 855.752 82.008 850.735C81.3989 848.437 81.8094 846.089 83.0587 844.078C99.5013 817.602 276.974 805.923 314.366 803.955L359.011 801.981C363.444 801.805 368.892 802.548 373.104 801.54C373.244 801.507 373.381 801.467 373.52 801.43C375.395 796.845 366.203 773.978 364.5 768.542C363.326 764.775 362.348 760.95 361.571 757.083C359.181 744.989 360.001 732.63 358.521 720.453C357.535 712.34 354.708 704.416 354.514 696.222C353.951 672.431 373.671 655.686 393.893 647.265C403.47 643.277 413.683 640.645 423.854 638.697C419.724 627.356 416.525 615.839 412.736 604.408L412.198 604.959C407.604 609.709 403.809 615.156 399.462 620.121C390.198 630.702 378.68 635.42 364.698 635.813C348.055 636.28 331.015 629.596 318.951 618.121C312.945 612.41 308.279 605.18 301.898 599.922C297.05 595.927 290.859 593.834 286.052 589.794C281.225 585.737 277.43 580.632 272.297 576.93L271.508 576.351C271.349 576.236 271.188 576.126 271.028 576.013C256.872 575.082 242.326 574.414 228.16 575.201C224.895 598.906 216.006 632.479 196.253 647.477C192.792 650.159 188.838 652.134 184.615 653.291C171.01 657.135 145.433 656.548 131.156 654.542C117.436 652.615 107.379 646.542 99.0172 635.453C86.4942 618.845 82.1878 596.502 79.4564 576.272C73.3204 575.485 68 574.108 64.0556 568.892C60.9136 564.737 59.8303 559.197 60.6498 554.099C61.4162 549.331 63.9584 545.104 68.0042 542.422C71.2533 540.268 74.7876 539.613 78.5275 538.833C78.5851 514.477 86.6364 483.076 104.418 465.584C114.501 455.666 125.678 454.176 139.278 453.488C145.655 453.135 152.041 452.991 158.426 453.057C173.224 453.29 192.116 451.704 203.303 463.179C216.761 476.982 222.383 499.06 226.249 517.51C227.568 523.804 228.403 530.431 230.336 536.548C238.436 536.235 246.507 536.325 254.611 536.445C260.533 530.333 277.085 521.519 285.76 521.594C287.223 521.606 288.738 521.814 290.175 522.085C294.766 518.86 299.532 515.822 305.434 516.758C307.211 517.04 308.913 517.747 310.579 518.402C317.299 515.336 325.164 512.188 332.535 515.03C339.055 517.545 342.735 524.425 345.745 530.316C350.277 524.545 354.862 518.527 359.936 513.231C361.1 494.661 363.838 475.958 378.42 462.957C383.434 458.487 389.182 454.964 394.899 451.481C394.337 440.063 394.478 428.647 394.182 417.224C393.906 406.561 393.031 395.9 393.088 385.23C393.334 339.736 399.272 274.081 431.101 239.147C442.038 227.142 457.446 215.225 473.115 210.346C478.606 208.636 484.24 207.935 489.812 206.611C488.179 203.346 486.736 201.591 483.729 199.543ZM420.811 799.445C427.209 800.75 435.349 801.057 441.766 799.845C443.987 794.873 445.26 789.306 448.07 784.616C452.449 777.308 459.423 771.735 464.352 764.791C464.475 764.618 464.594 764.443 464.714 764.269C449.459 760.648 445.725 764.392 430.78 755.012C426.488 769.704 422.087 784.111 420.811 799.445ZM671.159 534.137C669.699 532.246 666.852 530.776 664.514 530.405C666.017 531.951 667.234 533.228 669.215 534.159L671.159 534.137ZM701.266 563.289C706.308 560.31 709.992 557.677 711.596 551.665C713.3 545.273 711.905 537.502 708.551 531.834C705.844 527.26 701.52 523.685 696.233 522.578C695.344 522.392 694.447 522.454 693.55 522.527C689.506 524.028 687.9 525.293 686.06 529.271C685.616 530.232 685.528 530.912 685.624 531.979C690.154 538.328 704.723 532.046 702.298 545.546C701.419 550.437 697.35 557.982 700.522 562.438C700.815 562.851 700.944 562.961 701.266 563.289ZM75.441 549.379L74.7427 548.686C73.6063 549.206 73.112 549.521 72.6023 550.709C71.3289 553.675 71.227 560.001 72.529 562.886C73.0374 564.012 73.6541 564.616 74.8167 565.032C75.6953 565.346 76.0398 565.11 76.9008 564.901C77.6564 563.815 77.7286 563.737 77.7113 562.424C75.5419 558.218 75.6455 554.007 75.441 549.379ZM717.641 529.673C718.778 529.981 719.901 530.459 721.011 530.86L721.692 530.505C721.7 529.446 721.719 528.473 721.924 527.431L722.092 526.606C720.18 525.253 718.373 524.723 716.14 524.088L715.224 523.822L714.672 523.668C715.625 525.615 716.483 527.857 717.641 529.673Z"/><path fill="#7BD988" d="M489.104 798.374C493.819 800.545 528.446 799.797 534.947 798.847L535.381 799.424C538.548 803.694 540.535 808.106 541.587 813.328C545.099 830.755 535.232 867.855 559.476 871.38C566.019 872.331 575.802 871.843 581.198 867.724C584.791 864.981 585.943 860.187 586.387 855.905C588.148 838.934 585.317 818.281 582.26 801.553C588.72 801.276 595.11 801.003 601.581 800.965C601.76 808.289 601.852 815.562 600.261 822.765C597.495 835.282 584.5 859.822 595.516 870.754C607.257 882.406 647.567 883.132 664.2 882.682C670.63 882.508 678.627 881.964 683.335 876.997C685.464 874.75 685.959 871.607 685.76 868.603C685.313 861.879 679.917 856.514 674.977 852.484C663.809 843.374 647.575 835.205 645.602 819.307C644.952 814.07 646.013 808.416 647.818 803.481C672.952 803.599 698.076 804.565 723.146 806.375C753.119 808.081 783.037 810.638 812.865 814.044C843.55 817.52 889.764 822.925 918.266 833.957C924.359 836.315 935.349 840.971 937.946 847.589C938.763 849.671 938.45 851.921 937.441 853.87C933.194 862.073 918.882 866.556 910.708 869.087C890.059 875.48 868.642 878.818 847.307 881.97C809.2 887.544 770.869 891.458 732.423 893.701C655.616 898.754 578.662 901.264 501.689 901.23C474.104 901.003 446.523 900.387 418.955 899.382C409.975 899.04 401.018 898.261 392.039 897.935C378.171 897.431 364.256 897.891 350.399 897.309C297.201 894.889 244.129 890.236 191.322 883.362C160.717 879.273 120.583 876.136 93.2055 861.504C88.8867 859.195 83.3373 855.752 82.008 850.735C81.3989 848.437 81.8094 846.089 83.0587 844.078C99.5013 817.602 276.974 805.923 314.366 803.955L359.011 801.981C363.444 801.805 368.892 802.548 373.104 801.54C373.244 801.507 373.381 801.467 373.52 801.43C374.421 802.114 375.001 802.97 375.459 803.996C377.067 807.592 377.283 812.404 376.896 816.312C374.437 841.123 344.022 846.413 337.325 864.221C336.056 867.595 336.115 871.371 337.807 874.599C339.602 878.025 343.411 879.724 346.958 880.706C362.385 884.977 407.996 882.678 421.653 874.362C444.162 860.657 415.58 821.275 420.64 800.112C420.694 799.889 420.754 799.668 420.811 799.445C427.209 800.75 435.349 801.057 441.766 799.845C438.59 816.349 436.215 834.015 436.949 850.871C437.185 856.289 438.02 863.191 442.362 866.948C447.107 871.052 455.293 871.814 461.356 871.433C496.316 869.231 467.125 823.142 488.636 798.894L489.104 798.374Z"/><path fill="#9EF09C" d="M558.824 763.4C571.054 763.73 580.843 762.916 592.037 757.746C595.124 772.293 599.676 786.14 601.581 800.965C595.11 801.003 588.72 801.276 582.26 801.553C577.735 786.571 569.042 774.94 558.824 763.4Z"/><path fill="#9EF09C" d="M489.104 798.374C495.737 791.978 503.08 787.928 512.53 788.11C520.957 788.272 528.583 791.872 534.266 798.053C534.502 798.31 534.727 798.576 534.947 798.847C528.446 799.797 493.819 800.545 489.104 798.374Z"/><path fill="#9EF09C" d="M410.555 315.326C416.975 282.742 429.073 249.952 457.96 230.726C477.909 217.721 502.178 213.095 525.512 217.849C549.165 222.733 569.282 236.907 582.508 257.037C616.334 308.524 608.698 388.667 611.068 447.872L604.819 451.974C627.378 463.416 641.755 466.925 650.444 493.37C652.884 500.796 654.011 508.561 655.267 516.252C661.435 523.114 668.81 528.729 674.794 535.792C661.107 535.146 647.404 534.882 633.701 535.002L620.492 535.004C620.436 527.048 620.572 519.192 621.168 511.256C619.289 506.751 617.48 502.243 615.09 497.978C614.567 510.393 613.915 522.74 611.814 535.007C542.287 534.324 472.755 534.327 403.228 535.015C401.21 522.332 400.593 509.665 400.872 496.832C396.371 504.503 392.815 511.976 393.717 521.107C394.75 525.674 394.557 530.343 394.498 534.993L384.533 534.996L355.891 535.003C360.911 528.38 367.37 522.762 370.517 514.87C370.258 505.688 371.792 497.462 374.917 488.833C380.463 472.001 391.982 465.808 406.601 457.613C408.778 456.393 411.795 454.972 413.231 452.88C413.701 452.196 413.461 451.885 413.34 451.13C411.225 449.121 407.723 449.415 404.986 449.356C404.961 416.486 406.428 383.635 406.443 350.771C403.72 339.301 406.823 326.221 410.555 315.326ZM671.159 534.137C669.699 532.246 666.852 530.776 664.514 530.405C666.017 531.951 667.234 533.228 669.215 534.159L671.159 534.137Z"/><path fill="#7BD988" d="M621.168 511.256C623.481 519.886 632.634 525.533 633.701 535.002L620.492 535.004C620.436 527.048 620.572 519.192 621.168 511.256Z"/><path fill="#7BD988" d="M410.555 315.326C414.557 324.012 410.398 340.393 407.277 348.969C406.848 350.147 407.052 349.68 406.443 350.771C403.72 339.301 406.823 326.221 410.555 315.326Z"/><path fill="#7BD988" d="M393.717 521.107C394.75 525.674 394.557 530.343 394.498 534.993L384.533 534.996C386.372 530.215 390.537 525.118 393.717 521.107Z"/><path fill="#7BD988" d="M370.517 514.87C370.258 505.688 371.792 497.462 374.917 488.833C377.49 494.952 375.933 503.346 373.467 509.321C372.678 511.267 371.69 513.127 370.517 514.87Z"/><path fill="#289554" d="M571.274 305.467C573.338 305.454 576.657 305.566 578.252 307.081C579.058 307.846 579.393 308.795 579.188 309.889C578.155 315.403 569.449 319.937 564.926 322.338C569.19 328.968 572.762 335.717 573.449 343.712C574.129 351.631 571.836 359.678 566.544 365.691C561.928 370.938 555.401 374.118 548.424 374.518C539.231 375.007 531.063 370.47 524.505 364.425C520.144 357.923 518.426 350.753 517.301 343.115L512.925 340.023C510.392 332.176 510.291 326.429 512.115 318.339C515.09 322.619 517.132 327.404 519.287 332.125C525.566 327.599 534.136 324.635 541.146 321.228C551.315 316.22 561.361 310.965 571.274 305.467Z"/><path fill="#FCECBA" d="M553.172 330.416C555.408 330.787 557.424 332.363 558.746 334.167C561.595 338.054 561.997 343.613 561.141 348.212C560.243 353.044 557.773 357.681 553.639 360.484C548.876 363.712 544.195 363.187 538.852 362.293C535.171 360.079 530.94 356.928 529.17 352.893C528.077 350.464 528.099 347.679 529.23 345.268C532.937 337.247 545.565 333.417 553.172 330.416Z"/><path fill="#289554" d="M434.108 307.378C448.833 307.988 475.164 322.808 488.835 329.129C489.184 328.478 489.546 327.834 489.92 327.197C491.417 324.672 492.938 322.75 495.873 322.025C496.664 322.182 497.096 322.119 497.693 322.727C498.751 323.805 499.068 325.249 499.103 326.724C499.245 332.575 495.297 336.902 491.519 340.826C491.378 349.323 490.024 356.453 485.898 363.93C481.65 368.556 476.012 372.178 469.905 373.759C463.32 375.464 456.404 374.587 450.63 370.918C444.524 367.037 440.524 360.55 439.157 353.51C437.162 343.236 441.3 334.572 446.843 326.288C443.381 324.556 439.811 322.801 436.641 320.565C434.33 318.935 431.939 316.619 431.552 313.67C431.206 311.042 432.569 309.343 434.108 307.378Z"/><path fill="#FCECBA" d="M457.061 329.735C465.285 333.564 473.623 337.142 482.065 340.463C482 341.98 481.935 343.502 481.787 345.013C481.126 351.793 478.316 356.816 473.121 361.119C471.94 361.616 470.722 362.126 469.49 362.482C465.649 363.592 461.289 363.973 457.677 361.95C454.509 360.177 452.619 356.802 451.688 353.392C449.313 344.684 452.882 337.11 457.061 329.735Z"/><path fill="#289554" d="M497.761 395.702C506.229 394.35 516.75 395.77 525.085 397.473C529.902 398.457 541.11 401.401 543.438 406.17C543.992 407.305 544.102 408.176 543.641 409.378C542.696 411.84 539.597 413.484 537.4 414.582C531.007 412.135 524.573 410.385 517.887 408.975C512.233 408.189 507.086 407.826 501.399 408.491C495.196 409.217 477.997 415.584 472.902 412.488C471.77 411.799 471.194 410.751 470.874 409.503C470.391 407.62 471.201 405.383 472.338 403.889C476.972 397.801 490.909 396.329 497.761 395.702Z"/><path fill="#7BD988" d="M447.065 445.745C447.839 445.882 448.542 446.088 449.272 446.385C451.755 447.395 453.689 449.417 454.59 451.941C456.994 458.627 454.216 465.707 451.224 471.674C450.33 471.279 449.448 470.859 448.579 470.413C445.778 468.941 443.77 466.326 442.925 463.281C441.24 457.202 444.084 450.917 447.065 445.745Z"/><path fill="#7BD988" d="M448.128 259.774C448.938 260.118 449.768 260.563 450.476 261.085C452.192 262.35 453.209 264.265 453.537 266.346C454.668 273.501 449.442 281.185 445.409 286.65C445.224 286.539 445.031 286.438 444.852 286.317C442.495 284.713 440.776 282.218 440.335 279.383C439.25 272.415 444.29 265.175 448.128 259.774Z"/><path fill="#7BD988" d="M505.331 466.676C508.092 468.05 510.2 470.371 511.224 473.287C513.636 480.161 510.736 487.55 507.633 493.648C507.104 493.507 506.68 493.322 506.189 493.075C503.8 491.876 502.154 489.866 501.38 487.305C499.326 480.506 502.231 472.699 505.331 466.676Z"/><path fill="#7BD988" d="M495.45 236.362C495.785 236.522 496.117 236.687 496.448 236.856C499.755 238.559 502.06 240.793 503.11 244.454C504.595 249.63 502.724 255.969 500.161 260.556C499.433 260.378 498.711 260.208 498.006 259.95C495.512 259.035 493.378 257.39 492.314 254.903C489.819 249.077 493.109 241.757 495.45 236.362Z"/><path fill="#7BD988" d="M552.854 255.103C555.504 256.296 557.868 258.051 559.653 260.365C564.484 266.63 563.603 274.833 562.852 282.173C559.654 280.485 556.787 278.352 554.775 275.302C550.668 269.072 551.542 262.013 552.854 255.103Z"/><path fill="#7BD988" d="M568.921 438.319C569.062 438.392 569.207 438.459 569.345 438.539C572.814 440.542 575.344 443.543 576.229 447.499C577.447 452.948 575.467 458.059 572.651 462.627C572.005 462.451 571.366 462.28 570.736 462.053C568.319 461.181 566.678 459.604 565.707 457.214C563.341 451.392 566.475 443.684 568.921 438.319Z"/><path fill="#7BD988" d="M585.399 372.953C588.572 375.066 590.641 376.911 591.814 380.676C593.552 386.25 591.539 392.347 589.059 397.369C586.183 395.599 583.865 393.547 582.636 390.312C580.416 384.466 582.962 378.266 585.399 372.953Z"/><path fill="#7BD988" d="M425.843 393.12C428.213 393.821 429.948 395.441 431.776 397.018C433.3 404.073 431.642 409.371 428.436 415.588C427.802 415.557 427.88 415.61 427.216 415.333C425.15 414.472 423.489 412.992 422.692 410.884C420.48 405.035 423.352 398.39 425.843 393.12Z"/><path fill="#7BD988" d="M554.765 502.607C557.102 503.656 559.067 505.428 560.086 507.809C562.552 513.568 559.472 520.555 557.269 525.916C554.692 524.732 552.691 523.149 551.674 520.407C549.571 514.743 552.522 507.82 554.765 502.607Z"/><path fill="#7BD988" d="M431.646 500.255C433.8 501.658 435.47 504.312 436.234 506.732C438.092 512.623 436.155 518.476 433.521 523.757C431.034 522.691 429.691 521.082 427.95 519.118C428.165 512.615 429.616 506.406 431.646 500.255Z"/><path fill="#289554" d="M500.382 421.153C503.234 421.012 506.117 421.112 508.914 421.721C510.456 422.057 511.558 422.295 512.429 423.655C511.716 424.843 511.21 424.93 509.988 425.524C506.496 425.594 503.044 425.388 499.693 424.33C498.543 423.966 497.874 423.731 497.301 422.632C498.315 421.548 498.973 421.536 500.382 421.153Z"/><path fill="#9EF09C" fill-opacity="0.66666669" d="M664.514 530.405C666.852 530.776 669.699 532.246 671.159 534.137L669.215 534.159C667.234 533.228 666.017 531.951 664.514 530.405Z"/><path fill="#9EF09C" d="M419.411 572.503L605.885 572.997C603.364 582.989 601.68 593.335 598.499 603.134L596.661 609.847C595.806 619.553 591.814 629.651 589.079 639.002L582.961 639.042C577.528 640.386 567.355 642.675 564.35 647.913C563.97 648.574 563.977 648.678 563.796 649.325C564.236 650.362 564.294 650.571 565.389 651.046C570.848 653.416 587.059 649.94 593.945 650.035C616.16 650.344 646.699 661.309 656.17 683.257C657.767 686.873 658.588 690.784 658.58 694.737C658.564 701.778 655.665 708.603 654.898 715.577C653.325 729.879 654.927 744.163 651.051 758.259C645.743 777.562 633.537 796.33 634.405 816.9C635.445 841.54 659.466 847.51 671.901 864.941C672.972 866.442 674.534 868.312 674.405 870.228C672.829 872.173 670.217 872.304 667.825 872.55C656.446 873.72 612.239 870.49 604.551 863.912C602.517 862.171 601.99 859.012 601.941 856.478C601.674 842.734 612.222 827.371 612.315 810.001C612.474 780.576 596.996 758.285 603.34 727.126C603.737 723.335 605.413 717.898 603.817 714.336C603.471 713.564 602.608 712.413 601.791 712.177C596.648 710.687 582.422 715.809 575.98 716.053C559.546 716.676 546.611 708.433 532.056 702.285C520.439 705.999 504.816 703.941 493.172 701.323C480.75 707.378 467.83 713.973 453.92 715.631C446.27 716.543 438.282 716.158 430.656 715.2C427.489 714.802 418.644 712.469 416.175 713.408C418.472 724.116 421.549 735.27 421.492 746.266C421.383 767.38 409.319 786.521 409.484 807.64C409.636 827.059 423.977 845.304 417.11 864.866C413.357 866.675 409.787 867.962 405.704 868.819C394.698 871.132 359.983 874.68 349.988 871.38C349.03 871.064 348.38 870.615 347.644 869.921C347.348 868.416 347.69 867.322 348.551 866.04C351.31 861.929 356.298 858.715 360.13 855.649C374.977 843.771 389.563 830.438 386.391 809.576C386.177 808.089 385.899 806.612 385.558 805.148C381.631 794.689 377.656 783.65 375.833 772.614C375.552 769.815 374.462 766.796 373.777 764.053C372.271 758.017 370.759 751.941 370.024 745.754C368.77 735.21 370.248 724.478 368.812 713.968C367.887 707.199 364.365 700.962 364.558 693.995C364.818 684.643 371.525 675.377 378.149 669.256C399.916 649.139 432.688 649.806 460.397 650.955C456.638 647.626 452.358 644.891 448.202 642.091C443.833 640.927 439.26 640.207 434.837 639.211C426.475 618.291 419.689 595.188 419.411 572.503Z"/><path fill="#7BD988" d="M419.411 572.503L605.885 572.997C603.364 582.989 601.68 593.335 598.499 603.134L598.423 602.587C597.701 597.011 599.494 590.535 594.281 586.641C577.518 574.122 489.288 581.089 465.688 582.408C456.404 582.927 446.269 582.008 437.161 583.707C434.353 584.231 430.824 585.245 429.199 587.828C427.096 591.17 428.678 596.796 429.689 600.344C433.244 612.829 441.202 631.24 448.202 642.091C443.833 640.927 439.26 640.207 434.837 639.211C426.475 618.291 419.689 595.188 419.411 572.503Z"/><path fill="#7BD988" d="M416.175 713.408C416.223 712.202 416.634 711.566 417.487 710.731C419.646 708.618 422.738 707.281 425.653 706.651C435.688 704.482 446.153 706.386 456.247 704.324C470.231 701.466 483.129 693.61 497.763 694.714C505.259 695.28 512.698 697.04 520.248 696.646C527.789 696.252 535.123 693.639 542.746 694.318C551.584 695.106 559.425 699.994 567.986 701.918C578.423 704.263 597.858 700.058 605.554 708.846C607.77 711.377 608.161 714.513 607.887 717.763C607.585 721.354 606.088 724.743 603.34 727.126C603.737 723.335 605.413 717.898 603.817 714.336C603.471 713.564 602.608 712.413 601.791 712.177C596.648 710.687 582.422 715.809 575.98 716.053C559.546 716.676 546.611 708.433 532.056 702.285C520.439 705.999 504.816 703.941 493.172 701.323C480.75 707.378 467.83 713.973 453.92 715.631C446.27 716.543 438.282 716.158 430.656 715.2C427.489 714.802 418.644 712.469 416.175 713.408Z"/><path fill="#7BD988" d="M375.833 772.614C382.76 779.002 385.855 790.223 386.241 799.404C386.326 801.417 386.155 803.224 385.558 805.148C381.631 794.689 377.656 783.65 375.833 772.614Z"/><path fill="#7BD988" d="M582.961 639.042C584.912 634.392 587.513 629.923 589.551 625.282C591.461 620.93 592.871 615.942 595.16 611.82C595.576 611.072 596.095 610.481 596.661 609.847C595.806 619.553 591.814 629.651 589.079 639.002L582.961 639.042Z"/><path fill="#7BD988" d="M573.506 599.745C574.085 599.992 574.659 600.227 575.194 600.565C577.383 601.935 578.863 604.193 579.247 606.746C580.23 613.087 576.424 619.62 572.99 624.663C572.439 624.528 572.355 624.538 571.78 624.219C569.532 622.975 567.807 620.407 567.331 617.92C566.086 611.419 570.093 604.932 573.506 599.745Z"/><path fill="#7BD988" d="M571.688 674.424C574.23 674.457 576.759 674.773 579.231 675.365C582.64 676.2 586.217 677.736 588.019 680.934C589.794 684.086 589.128 686.722 588.094 689.991C587.231 689.987 587.294 690.018 586.566 689.924C581.59 689.28 576.209 687.045 573.204 682.88C571.119 679.989 571.101 677.817 571.688 674.424Z"/><path fill="#7BD988" d="M496.664 653.763C497.779 653.896 498.813 654.34 499.734 654.983C501.025 655.886 501.81 657.244 502.071 658.788C503.006 664.327 498.621 670.432 495.447 674.621C494.752 674.429 494.151 674.137 493.534 673.766C491.88 672.773 490.736 671.31 490.389 669.392C489.377 663.81 493.531 658.032 496.664 653.763Z"/><path fill="#7BD988" d="M454.525 592.657C456.667 594.181 458.166 595.778 459.099 598.281C461.488 604.687 459.181 612.516 456.546 618.521C454.705 617.125 453.164 615.039 452.234 612.936C449.329 606.36 452.193 598.928 454.525 592.657Z"/><path fill="#7BD988" d="M528.092 653.163C530.783 654.908 532.785 657.089 533.815 660.182C535.644 665.673 533.533 671.487 531.032 676.384C528.417 674.933 526.207 672.779 525.178 669.914C523.165 664.309 525.858 658.269 528.092 653.163Z"/><path fill="#7BD988" d="M636.321 699.418C639.242 701.211 641.873 703.054 643.487 706.174C645.873 710.788 644.733 715.636 643.334 720.343C642.755 720.243 642.173 720.158 641.598 720.04C639.195 719.545 637.308 718.162 636.041 716.055C633.096 711.155 634.86 704.531 636.321 699.418Z"/><path fill="#7BD988" d="M511.164 590.227C513.523 591.954 515.47 593.722 517.444 595.877C517.67 601.81 517.363 606.382 514.574 611.796C514.387 611.742 514.197 611.698 514.014 611.634C511.694 610.823 509.746 609.303 508.754 607.015C506.493 601.797 509.272 595.159 511.164 590.227Z"/><path fill="#7BD988" d="M385.171 700.747C386.086 700.972 386.995 701.155 387.803 701.664C389.166 702.523 389.902 703.606 390.204 705.204C391.122 710.051 386.027 716.56 383.309 720.226C383.114 720.305 382.933 720.433 382.725 720.464C382.133 720.551 381.399 720.414 380.919 720.076C379.352 718.973 378.54 718.11 378.266 716.109C377.585 711.142 382.415 704.578 385.171 700.747Z"/><path fill="#40AC61" d="M171.151 464.15C179.024 463.986 186.22 465.875 192.519 470.771C211.464 485.497 214.977 513.816 217.66 535.98C209.62 536.087 201.592 535.302 193.548 535.485C186.221 535.651 177.393 536.514 172.175 542.291C168.644 546.199 167.735 551.556 167.907 556.659C168.076 561.682 169.558 566.43 173.434 569.827C183.843 578.95 205.147 575.797 217.79 575.008C214.494 591.234 210.309 606.699 203.506 621.835C202.347 624.039 201.173 626.226 199.797 628.305C194.911 635.688 188.109 642.702 179.01 644.3C171.377 645.641 163.523 642.958 157.351 638.527C140.646 626.534 134.353 602.843 131.169 583.539C125.778 550.856 128.095 507.055 147.925 479.742C153.618 471.901 161.392 465.709 171.151 464.15Z"/><path fill="#40AC61" d="M842.869 464.579C844.371 464.539 845.873 464.641 847.355 464.884C857.824 466.588 865.69 473.867 871.595 482.261C892.16 511.494 892.493 555.023 886.554 589.158C883.386 607.364 875.565 629.04 859.718 640.044C854.386 643.746 847.326 646.195 840.835 644.877C831.451 642.971 825.966 634.331 820.973 626.981C810.982 611.122 807.736 593.393 806.138 575.024C814.187 574.942 822.246 575.842 830.299 575.555C836.758 575.324 843.808 574.316 848.33 569.213C851.848 565.245 853.238 559.725 852.885 554.51C852.532 549.314 850.428 544.252 846.317 540.922C836.019 532.582 814.882 535.826 802.714 537.177C805.471 520.799 808.907 505.015 816.197 489.928C822.279 477.342 829.51 469.23 842.869 464.579Z"/><path fill="#40AC61" d="M873.965 465.251C881.843 464.722 890.495 464.221 898.253 465.884C908.417 468.062 915.416 474.097 920.905 482.714C939.434 511.798 941.639 558.725 934.286 592.048C930.109 610.979 921.979 630.088 905.082 640.885C894.457 645.865 883.448 645.147 872.005 644.965C876.236 639.468 880.314 633.897 883.83 627.904C904.191 593.191 906.336 531.224 890.782 493.957C889.075 489.866 886.849 485.854 884.483 482.11C881.92 478.054 874.951 470.215 874.074 465.923C874.029 465.701 874.001 465.475 873.965 465.251Z"/><path fill="#7BD988" d="M365.025 544.717C378.395 544.018 391.87 544.732 405.25 544.88L460.477 544.993L666.912 545.007C665.045 550.219 664.357 556.836 660.981 561.313C659.879 562.773 658.893 563.225 657.125 563.499L359.256 563.095C357.974 556.958 356.126 551.086 354.076 545.174L365.025 544.717Z"/><path fill="#40AC61" d="M132.827 464.664C137.325 464.301 141.961 464.517 146.476 464.512C132.091 483.536 123.557 503.749 120.406 527.453C114.723 570.2 120.522 609.358 147.434 644.473C142.252 644.51 137.024 644.696 131.856 644.255C126.124 643.28 121.184 641.617 116.535 638.037C98.6685 624.283 93.2229 596.843 90.4258 575.612C86.4427 545.377 87.6314 504.043 106.972 479.174C113.677 470.552 122.079 466.071 132.827 464.664Z"/><path fill="#40AC61" d="M508.088 760.7C510.398 760.493 512.688 760.536 515.002 760.632C531.22 761.305 546.693 766.335 557.852 778.572C571.758 793.821 573.73 814.449 575.526 834.05C576.055 839.824 577.192 845.981 576.821 851.772C576.644 854.529 576.111 857.052 573.865 858.849C570.018 861.928 563.543 861.421 558.944 860.825C556.59 859.361 555.195 857.995 554.364 855.281C553.011 850.863 553.592 845.99 553.76 841.447C554.365 825.11 555.24 807.152 544.364 793.648C538.527 786.401 527.442 779.441 518.091 778.478C507.326 777.232 495.28 779.571 486.547 786.223C473.42 796.222 469.894 814.189 470.1 829.792C470.197 837.145 471.17 845.055 470.053 852.318C469.623 855.113 468.948 857.529 466.481 859.176C461.482 862.515 453.426 860.359 448.013 859.147C446.395 835.225 447.777 800.65 463.415 781.445C474.937 767.294 490.573 762.599 508.088 760.7Z"/><path fill="#9EF09C" d="M311.046 569.375C315.324 570.988 319.985 572.83 324.44 570.645C326.425 569.671 335.27 563.651 336.379 562.264C335.363 557.855 322.651 552.392 325.484 547.37C326.591 545.407 329.253 544.3 331.37 543.856C334.346 543.232 338.357 544.797 340.73 546.554C344.959 549.687 349.207 555.356 349.896 560.702C350.442 564.935 347.992 569.262 345.397 572.391C341.896 576.613 330.655 583.862 330.6 589.211C331.771 590.264 332.925 590.289 334.458 590.213C344.765 589.703 350.337 582.801 356.601 575.619C367.915 581.993 373.257 588.292 378.641 600.045C381.498 590.256 376.796 581.652 372.814 573.032L404.298 573.007C405.948 579.55 406.917 586.537 407.865 593.221C402.996 602.761 396.501 611.919 387.676 618.171C377.908 625.092 365.925 627.383 354.193 625.304C334.984 621.901 320.161 606.954 309.492 591.565C299.255 586.311 289.695 581.256 281.407 573.092L291.359 573.278L295.286 570.106L302.942 572.417L311.046 569.375Z"/><path fill="#7BD988" d="M372.814 573.032L404.298 573.007C405.948 579.55 406.917 586.537 407.865 593.221C402.996 602.761 396.501 611.919 387.676 618.171C377.908 625.092 365.925 627.383 354.193 625.304C334.984 621.901 320.161 606.954 309.492 591.565C314.478 592.688 318.812 594.398 323.245 596.959C339.008 606.062 355.921 625.208 375.447 612.395C377.635 610.96 379.462 609.362 379.97 606.679C380.355 604.648 379.291 601.947 378.641 600.045C381.498 590.256 376.796 581.652 372.814 573.032Z"/><path fill="#40AC61" d="M495.326 716.158C505.614 714.411 527.827 716.876 537.962 719.338C545.997 721.29 553.755 724.245 561.885 725.844C570.157 727.47 578.477 727.833 586.878 728.028C587.383 730.577 587.747 733.306 587.89 735.899C588.247 742.365 586.027 747.105 581.782 751.772C564.319 753.202 546.931 752.465 529.443 752.015C515.086 751.958 500.687 751.793 486.335 752.104C473.649 752.379 460.561 754.13 447.968 751.996C444.242 751.365 439.983 750.442 437.747 747.134C433.909 741.455 435.69 733.765 436.77 727.511C447.882 727.128 458.918 725.536 469.685 722.762C478.14 720.543 486.677 717.455 495.326 716.158Z"/><path fill="#7BD988" d="M617.794 573.089L648.622 573.111C645.03 583.058 644.075 591.27 646.373 601.647C650.117 589.043 655.029 582.779 665.726 575.261C670.422 580.295 675.886 586.379 682.665 588.45C687.429 589.906 691.175 588.827 695.386 586.481C701.26 586.277 707.38 588.254 713.059 589.667C702.643 597.192 695.871 608.806 685.1 616.192C675.462 622.802 663.689 626.275 652.044 624.025C634.646 620.663 623.491 605.712 614.073 591.979L617.794 573.089Z"/><path fill="#7BD988" d="M820.759 546.213C826.173 545.84 834.64 545.541 839.02 549.172C840.885 550.719 841.877 552.61 842.053 555.032C842.237 557.556 841.878 559.877 840.037 561.728C832.926 568.875 802.016 565.048 791.25 564.942L767.778 564.548C768.334 558.705 768.842 552.902 769.036 547.033C786.255 546.985 803.57 547.288 820.759 546.213Z"/><path fill="#7BD988" d="M183.158 546.488C205.579 546.43 228 546.605 250.417 547.014C250.895 552.349 252.811 558.138 251.193 563.393C250.048 564.55 249.698 564.365 248.125 564.494C236.114 564.537 224.102 564.664 212.093 564.876C204.594 564.976 196.691 565.482 189.234 564.615C186.315 564.275 182.575 563.856 180.401 561.706C177.945 559.277 178.421 555.817 178.512 552.671L183.158 546.488Z"/><path fill="#9EF09C" d="M695.386 586.481C686.425 581.206 674.858 574.881 672.109 563.944C671.216 560.39 671.67 556.842 673.596 553.707C676.337 549.248 681.494 545.905 686.586 544.858C688.892 544.384 691.882 544.278 693.859 545.798C694.932 546.622 695.34 547.716 695.369 549.034C695.436 552.194 691.95 555.63 689.736 557.492C687.561 559.322 685.164 560.928 682.868 562.605C687.786 565.259 692.683 567.95 697.561 570.678C709.72 569.024 713.22 570.805 724.681 572.239C729.754 572.874 735.034 573.017 740.145 573.055C731.739 580.259 723.062 585.009 713.059 589.667C707.38 588.254 701.26 586.277 695.386 586.481Z"/><path fill="#9EF09C" fill-opacity="0.98823529" d="M693.55 522.527C694.447 522.454 695.344 522.392 696.233 522.578C701.52 523.685 705.844 527.26 708.551 531.834C711.905 537.502 713.3 545.273 711.596 551.665C709.992 557.677 706.308 560.31 701.266 563.289C700.944 562.961 700.815 562.851 700.522 562.438C697.35 557.982 701.419 550.437 702.298 545.546C704.723 532.046 690.154 538.328 685.624 531.979C685.528 530.912 685.616 530.232 686.06 529.271C687.9 525.293 689.506 524.028 693.55 522.527Z"/><path fill="#9EF09C" d="M323.42 522.499C325.044 522.459 326.841 522.689 328.352 523.321C332.268 524.959 333.769 529.119 335.254 532.752C334.159 532.904 333.062 533.061 331.98 533.288C328.035 534.117 324.407 535.845 322.191 539.35C318.282 545.534 320.396 554.744 321.843 561.432C321.708 561.57 321.593 561.732 321.437 561.846C320.373 562.63 319.445 563.051 318.102 562.784C316.424 562.45 314.909 560.753 313.979 559.423C310.186 553.998 309.22 545.731 310.479 539.31C312.045 531.316 316.897 526.723 323.42 522.499Z"/><path fill="#9EF09C" d="M301.772 524.877C302.756 525.266 303.328 525.48 303.824 526.527C305.563 530.197 301.68 537.117 300.061 540.423C301.714 545.285 303.516 550.383 304.137 555.497C304.459 558.144 304.666 560.558 302.955 562.762C301.91 563.341 301.463 563.423 300.276 563.291C295.701 556.996 291.682 550.002 292.084 541.93C292.452 534.563 296.458 529.505 301.772 524.877Z"/><path fill="#9EF09C" d="M722.092 526.606C726.041 529.451 727.728 532.714 728.572 537.496C729.708 543.935 728.404 554.034 724.502 559.398C723.237 561.136 722.068 561.788 720.004 562.244C718.814 561.847 718.602 561.795 717.806 560.843C716.218 549.92 722.896 543.867 717.641 529.673C718.778 529.981 719.901 530.459 721.011 530.86L721.692 530.505C721.7 529.446 721.719 528.473 721.924 527.431L722.092 526.606Z"/><path fill="#9EF09C" d="M283.434 529.853L284.16 530.326C286.02 533.68 283.448 540.485 283.468 544.358C283.499 550.062 288.407 555.817 287.456 561.783C287.239 563.147 286.793 563.554 285.738 564.367C284.267 564.605 283.398 564.215 282.071 563.679C281.752 563.361 281.43 563.044 281.128 562.71C276.772 557.89 273.945 551.569 274.408 544.98C274.87 538.399 278.592 533.898 283.434 529.853Z"/><path fill="#9EF09C" d="M736.425 529.234C740.59 531.549 743.983 534.657 745.523 539.282C748.181 547.266 744.605 555.551 740.959 562.564C739.901 563.212 738.692 563.879 737.511 564.265C736.177 564.702 735.486 564.581 734.258 564.001C732.501 560.496 736.544 551.359 736.985 546.974C737.571 541.152 736.78 535.066 736.425 529.234Z"/><path fill="#9EF09C" d="M264.618 538.833C266.736 541.04 267.482 544.067 268.211 546.953C269.487 552.007 272.389 561.896 269.669 566.442C268.537 567.224 267.95 567.332 266.583 567.375C263.416 564.432 260.696 561.225 259.594 556.95C257.895 550.36 261.409 544.303 264.618 538.833Z"/><path fill="#9EF09C" d="M753.941 538.207C753.994 538.243 754.048 538.276 754.099 538.315C757.404 540.791 759.788 544.439 760.406 548.549C761.451 555.502 758.566 561.064 754.696 566.53C754.499 566.582 754.305 566.645 754.105 566.685C752.35 567.033 751.206 566.816 749.753 565.862C749.571 565.409 749.311 564.979 749.208 564.502C749.023 563.645 753.401 542.155 753.941 538.207Z"/><path fill="#7BD988" d="M949.218 548.19C951.27 548.748 953.236 549.653 954.378 551.543C956.472 555.008 954.934 559.779 954.079 563.407C953.585 563.702 952.858 564 952.285 564.028C951.123 564.086 950.405 563.553 949.721 562.683C947.322 559.636 948.627 551.865 949.218 548.19Z"/><path fill="#9EF09C" fill-opacity="0.98431373" d="M714.672 523.668L715.224 523.822L716.14 524.088C718.373 524.723 720.18 525.253 722.092 526.606L721.924 527.431C721.719 528.473 721.7 529.446 721.692 530.505L721.011 530.86C719.901 530.459 718.778 529.981 717.641 529.673C716.483 527.857 715.625 525.615 714.672 523.668Z"/><path fill="#7BD988" d="M75.441 549.379C77.7791 551.96 78.6786 554.969 78.5449 558.428C78.4905 559.832 78.3322 561.148 77.7113 562.424C75.5419 558.218 75.6455 554.007 75.441 549.379Z"/></svg>